<?xml version="1.0" encoding="utf-8"?>
<!-- Generator: Adobe Illustrator 16.0.3, SVG Export Plug-In . SVG Version: 6.00 Build 0)  -->
<!DOCTYPE svg PUBLIC "-//W3C//DTD SVG 1.1//EN" "http://www.w3.org/Graphics/SVG/1.1/DTD/svg11.dtd">
<svg version="1.1" id="Livello_1" xmlns="http://www.w3.org/2000/svg" xmlns:xlink="http://www.w3.org/1999/xlink" x="0px" y="0px"
	 width="772.461px" height="289.486px" viewBox="0 0 772.461 289.486" enable-background="new 0 0 772.461 289.486"
	 xml:space="preserve">
<g>
	<path fill="#353535" d="M310.719,184.058v8.377h-23.815c-15.768,0-31.206-6.405-31.206-24.637c0-30.056,0-60.278,0-90.334h8.376
		v90.334c0,12.318,12.812,16.26,22.83,16.26H310.719z"/>
	<path fill="#353535" d="M327.966,170.097c0,2.629,0.492,4.764,1.971,6.898c2.792,3.778,7.884,6.406,13.632,7.392
		c4.436,0.821,8.541,0.821,12.976,0c6.077-0.821,11.662-3.285,15.275-8.377l7.063,4.271c-4.764,7.72-12.812,11.005-21.188,12.318
		c-4.928,0.821-9.362,0.985-14.29,0.164c-8.376-1.313-15.932-5.091-20.202-10.84c-2.628-3.777-3.613-7.884-3.613-12.482v-36.462
		c0-10.84,8.212-17.574,18.889-20.53c7.719-2.136,16.096-2.136,23.815,0c21.352,6.405,24.965,34.819,5.092,45.331
		c-11.497,6.242-28.415,3.942-39.419,3.942V170.097z M327.966,154.495c7.063-0.329,24.473,1.477,35.477-3.778
		c13.961-6.569,11.333-26.279-3.285-30.385c-6.241-1.643-13.304-1.643-19.545,0c-7.063,1.971-12.646,6.241-12.646,12.646V154.495z"
		/>
	<path fill="#353535" d="M416.167,193.092c-13.469,0.821-20.202-3.449-20.202-18.067V77.464h8.212v97.725
		c0,8.541,3.449,10.512,11.99,10.512V193.092z"/>
	<path fill="#353535" d="M489.583,205.082c0,11.333-8.541,18.231-18.56,20.859c-3.942,1.15-8.049,1.643-11.99,1.643
		c-10.348,0-23.323-3.449-28.579-13.304l7.063-3.777c4.6,6.733,13.797,8.869,21.517,8.869c3.285,0,6.734-0.329,9.69-1.15
		c6.405-1.807,12.482-6.077,12.646-13.14v-1.478v-1.314v-16.096c-11.168,10.348-30.878,9.69-42.703,2.628
		c-6.406-3.777-10.512-9.854-10.512-17.574v-59.292h8.376v59.128c0,4.927,2.3,8.212,6.406,10.676
		c4.435,2.628,10.183,3.777,15.932,3.941l0.492-0.164c8.213,0,16.097-2.464,19.874-7.555c1.643-2.136,2.135-4.6,2.135-7.392v-58.635
		h8.213v91.649V205.082z"/>
	<path fill="#353535" d="M526.21,193.092c-13.468,0.821-20.202-3.449-20.202-18.067V77.464h8.213v97.725
		c0,8.541,3.449,10.512,11.989,10.512V193.092z"/>
	<path fill="#353535" d="M586.817,133.636c0-2.464-0.493-4.764-1.972-6.734c-2.792-3.941-7.884-6.405-13.796-7.555
		c-4.435-0.821-8.377-0.657-12.976,0c-5.913,0.985-11.661,3.448-15.11,8.54l-7.063-4.435c9.69-15.604,44.839-16.425,55.679-1.478
		c2.628,3.777,3.449,7.884,3.449,12.318v43.196c0,6.077,3.942,7.72,8.048,7.72v7.391c-6.898,0.493-12.318-1.479-14.782-6.569
		c-7.063,6.898-15.932,8.54-23.979,8.54c-3.941,0-8.048-0.656-11.99-1.642c-22.337-6.077-24.965-33.014-8.212-44.018
		c10.184-6.898,26.443-7.884,42.704-4.763V133.636z M586.817,151.703c-12.154-3.121-28.086-3.449-37.448,3.12
		c-11.497,8.047-10.512,25.786,5.256,30.221c2.956,0.82,6.241,1.149,9.69,1.149c8.541,0,22.502-3.285,22.502-13.797V151.703z"/>
	<path fill="#353535" d="M667.956,192.435v-58.799c0-9.69-11.169-14.946-22.338-14.946c-11.168,0-22.501,5.092-22.501,16.26v57.486
		h-8.377v-80.808h8.377v7.555c6.077-6.569,14.617-8.54,22.337-8.54c15.275-0.165,30.879,7.063,30.879,23.158v58.635H667.956z"/>
</g>
<circle fill="none" stroke="#8449ce" stroke-width="12.2381" stroke-miterlimit="10" cx="150.744" cy="137.688" r="64.247"/>
</svg>
